<svg width="294" height="279" viewBox="0 0 294 279" fill="none" xmlns="http://www.w3.org/2000/svg">
<path d="M64.0098 144.128C64.2702 143.981 64.5828 143.959 64.8613 144.067C81.5807 150.555 99.0497 156.295 113.954 160.411C128.9 164.538 141.153 167 147.5 167C153.842 167 165.979 164.485 180.459 160.33C194.897 156.187 211.545 150.45 226.854 144.077C227.129 143.963 227.442 143.976 227.705 144.115C227.969 144.254 228.157 144.503 228.218 144.795L246.312 231H261.5C261.526 231 261.552 231.001 261.577 231.003C262.806 231.097 264.622 231.57 266.158 232.709C267.735 233.878 269 235.746 269 238.5V241H285.5C286.052 241 286.5 241.448 286.5 242V271C286.5 271.552 286.052 272 285.5 272H8C7.44779 272 7.00012 271.552 7 271V242.5C7.00013 241.948 7.4478 241.5 8 241.5H24.5V236.107C24.3165 235.235 24.3741 233.982 25.1709 232.905C26.0373 231.734 27.6022 231 30 231H48.1621L63.5156 144.824L63.541 144.716C63.6145 144.468 63.7819 144.256 64.0098 144.128ZM32 248C31.9999 248.552 31.5522 249 31 249H14.5V263H33.3398C38.5709 261.344 41.9319 256.46 42.0127 251.122C42.0883 246.109 39.2516 240.572 32 237.05V248ZM260.014 237.05C252.762 240.572 249.925 246.109 250.001 251.122C250.082 256.46 253.443 261.344 258.674 263H277.514V249H261.014C260.461 249 260.014 248.552 260.014 248V237.05ZM182.066 174.773C182.062 174.774 182.058 174.775 182.054 174.776L182.322 186.071C182.325 186.07 182.329 186.07 182.332 186.069L182.641 199.24C182.639 199.24 182.637 199.24 182.636 199.24L183.5 235.5L199.5 215L199.812 215.389C205.903 223.004 217.495 237.495 222.5 242.5C224.308 244.308 226.899 243.239 227.061 240.806C227.015 239.958 226.7 238.975 226 237.909C224.403 235.476 220.678 230.453 216.413 224.984C216.459 224.971 216.504 224.957 216.55 224.944C214.114 221.866 211.495 218.636 208.991 215.652C208.975 215.657 208.959 215.661 208.943 215.666C207.578 214.014 206.248 212.436 205 211L228.956 208.466L182.014 172.51L182.066 174.773ZM67.957 217.29C67.0826 220.173 66.6129 221.72 66.3613 222.55C66.7456 222.664 67.2409 222.81 67.8379 222.984C69.392 223.438 71.6373 224.086 74.4141 224.859C79.965 226.406 87.6564 228.464 96.2148 230.51C113.132 234.554 134.12 238.722 148.541 238.49C156.991 238.354 167.76 236.672 178.474 234.472L178.207 223.292C167.237 225.612 156.419 227.362 148.364 227.492C135.5 227.699 115.759 223.872 98.7725 219.811C90.3793 217.805 82.8239 215.782 77.3662 214.262C74.639 213.502 72.4385 212.868 70.9238 212.426C70.3748 212.265 69.916 212.128 69.5547 212.021C69.303 212.85 68.8341 214.399 67.957 217.29ZM193.241 231.143C194.573 230.82 195.885 230.498 197.171 230.175C199.491 229.591 201.741 229.006 203.893 228.436C202.377 226.57 200.906 224.747 199.551 223.059L193.241 231.143ZM214.944 214.99C217.247 217.785 219.576 220.694 221.724 223.432C222.348 223.247 222.907 223.082 223.392 222.936C223.905 222.781 224.338 222.648 224.682 222.543C224.423 221.715 223.941 220.172 223.045 217.298C222.654 216.044 222.342 215.044 222.093 214.245L214.944 214.99ZM74.96 196.279C74.1175 199.17 73.6653 200.723 73.4229 201.555C73.76 201.652 74.1818 201.772 74.6816 201.912C76.0982 202.31 78.1452 202.876 80.6758 203.554C85.7344 204.907 92.7434 206.71 100.543 208.501C115.951 212.04 135.099 215.695 148.273 215.491C156.607 215.362 167.402 213.654 177.926 211.5L177.66 200.322C166.861 202.596 156.009 204.371 148.104 204.493C136.425 204.674 118.478 201.333 103.006 197.78C95.3655 196.025 88.4869 194.256 83.5186 192.927C81.0365 192.262 79.0339 191.709 77.6553 191.322C77.2002 191.194 76.8134 191.083 76.5 190.994C76.2571 191.827 75.8047 193.38 74.96 196.279ZM81.4502 172.509C80.5093 175.369 80.0041 176.904 79.7334 177.728C80.0267 177.823 80.3843 177.938 80.8018 178.07C82.0882 178.478 83.9459 179.058 86.2422 179.752C90.832 181.138 97.1929 182.985 104.272 184.82C118.214 188.435 135.685 192.21 147.781 191.999C156.095 191.854 167.022 189.785 177.351 187.305L177.082 176.047C166.381 178.701 155.356 180.865 147.589 181.001C137.179 181.183 121.056 177.807 107.033 174.172C100.13 172.382 93.9145 170.578 89.4238 169.222C87.1804 168.544 85.3707 167.978 84.126 167.584C83.756 167.467 83.4358 167.363 83.1689 167.277C82.8965 168.106 82.392 169.645 81.4502 172.509ZM214.411 191.027L214.483 191.083C214.476 191.059 214.47 191.035 214.463 191.013C214.446 191.018 214.429 191.022 214.411 191.027ZM206.479 167.567C205.331 167.943 203.662 168.481 201.591 169.13C198.547 170.082 194.642 171.269 190.254 172.523L201.062 180.803C202.443 180.383 203.721 179.991 204.877 179.629C206.997 178.965 208.711 178.411 209.898 178.023C210.251 177.908 210.557 177.805 210.813 177.721C210.54 176.912 210.023 175.384 209.053 172.516C208.085 169.656 207.566 168.123 207.288 167.301C207.057 167.377 206.787 167.467 206.479 167.567ZM146.257 7.19807C147.124 6.91454 148.064 6.93545 148.92 7.26057L263.92 50.9422L277.92 56.2606C279.481 56.8534 280.509 58.353 280.5 60.0223C280.491 61.6916 279.445 63.1796 277.878 63.7547L266 68.1131V99.9354C267.574 100.627 268.816 101.845 269.736 103.369C271.602 106.458 272.5 111.358 272.5 118.5C272.5 122.794 272.653 126.359 272.748 129.43C272.84 132.392 272.89 135.12 272.588 137.349C272.282 139.606 271.522 142.12 269.331 143.896C267.225 145.604 264.554 146 262 146C259.348 146 256.616 145.505 254.543 143.58C252.481 141.665 251.863 139.065 251.644 136.829C251.422 134.576 251.539 131.843 251.676 128.944C251.818 125.944 252 122.512 252 118.5C252 111.618 253.021 106.914 254.786 103.86C255.625 102.409 256.731 101.222 258 100.442V71.0487L226 82.7918V130C226 131.619 225.024 133.078 223.528 133.696C214.688 137.351 198.921 142.771 183.897 147.269C176.373 149.522 168.978 151.562 162.681 153.042C156.513 154.492 151.021 155.5 147.5 155.5C143.991 155.5 138.38 154.497 132.019 153.049C125.525 151.571 117.853 149.534 110.02 147.282C94.3749 142.785 77.8705 137.371 68.5439 133.725C67.01 133.126 66.0001 131.647 66 130V82.7469L16.5645 63.7332C15.0161 63.1377 13.9956 61.648 14 59.9891C14.0045 58.3302 15.0325 56.8459 16.584 56.2586L146.084 7.25862L146.257 7.19807ZM74 127.243C83.32 130.726 98.0759 135.524 112.23 139.593C119.98 141.82 127.496 143.815 133.794 145.248C140.224 146.711 145.009 147.5 147.5 147.5C149.979 147.5 154.633 146.716 160.851 145.255C166.939 143.824 174.169 141.831 181.603 139.605C195.148 135.549 209.182 130.769 218 127.296V85.7762L148.907 111.744C148.017 112.079 147.035 112.085 146.141 111.762L74 85.6971V127.243ZM81.5 79.9012L147.472 103.736L210.89 79.9022L147.471 54.7899L81.5 79.9012ZM29.2217 60.0301L70.0068 75.7166L146.077 46.7616L146.253 46.6991C147.139 46.4082 148.102 46.4362 148.973 46.7811L222.054 75.7186L258 62.5272V57.2508L147.497 15.2772L29.2217 60.0301Z" fill="#2B4AC7"/>
</svg>
